<?xml version="1.0" standalone="no"?><!DOCTYPE svg PUBLIC "-//W3C//DTD SVG 1.1//EN" "http://www.w3.org/Graphics/SVG/1.1/DTD/svg11.dtd"><svg t="1689983123012" class="icon" viewBox="0 0 1024 1024" version="1.1" xmlns="http://www.w3.org/2000/svg" p-id="1481" xmlns:xlink="http://www.w3.org/1999/xlink" width="200" height="200"><path d="M512 618.666667H256c-93.866667 0-170.666667-76.8-170.666667-170.666667s76.8-170.666667 170.666667-170.666667h435.2c128 0 247.466667 106.666667 247.466667 234.666667s-115.2 234.666667-247.466667 234.666667H341.333333v-85.333334h349.866667c81.066667 0 162.133333-68.266667 162.133333-149.333333s-76.8-149.333333-162.133333-149.333333H243.2c-46.933333 0-81.066667 38.4-81.066667 85.333333s34.133333 85.333333 81.066667 85.333333h362.666667c12.8 0 21.333333-12.8 21.333333-21.333333 0-12.8-8.533333-21.333333-21.333333-21.333333H341.333333v-85.333334h264.533334c59.733333 0 106.666667 46.933333 106.666666 106.666667s-46.933333 106.666667-106.666666 106.666667H512z" fill="#444444" p-id="1482"></path></svg>